<?xml version="1.0" standalone="no"?>
<!DOCTYPE svg PUBLIC "-//W3C//DTD SVG 20010904//EN"
 "http://www.w3.org/TR/2001/REC-SVG-20010904/DTD/svg10.dtd">
<svg version="1.0" xmlns="http://www.w3.org/2000/svg"
 width="572.000000pt" height="572.000000pt" viewBox="0 0 572.000000 572.000000"
 preserveAspectRatio="xMidYMid meet">
<metadata>
Created by potrace 1.14, written by Peter Selinger 2001-2017
</metadata>
<g transform="translate(0.000000,572.000000) scale(0.100000,-0.100000)"
fill="#000000" stroke="none">
<path d="M3719 5469 c-1 -82 0 -157 1 -346 l2 -173 61 -1 c76 -2 123 -6 162
-14 17 -4 39 -8 50 -10 84 -12 261 -72 370 -127 55 -27 102 -53 105 -56 6 -8
39 -30 60 -39 8 -4 17 -9 20 -12 3 -3 28 -24 55 -46 54 -42 138 -119 164 -148
9 -10 24 -28 35 -40 207 -240 340 -573 345 -868 l1 -67 63 -2 c34 -1 69 -1 77
-1 8 0 109 0 224 0 l208 0 -6 108 c-9 133 -20 218 -42 318 -4 17 -8 37 -9 45
-1 8 -4 22 -7 30 -3 8 -22 67 -42 130 -32 99 -128 310 -184 405 -24 41 -103
157 -116 171 -6 6 -20 23 -31 38 -11 16 -32 41 -47 56 -16 16 -28 31 -28 34 0
4 -136 138 -184 181 -205 186 -607 389 -851 431 -16 3 -43 9 -60 14 -16 5 -55
12 -85 15 -30 4 -57 8 -60 10 -3 2 -61 7 -128 10 l-122 7 -1 -53z"/>
<path d="M2661 5004 c-11 -15 -22 -31 -22 -35 -2 -12 -4 -21 -11 -39 -15 -38
-73 -206 -75 -215 -3 -13 -201 -596 -210 -615 -3 -8 -7 -19 -9 -25 -1 -5 -26
-79 -55 -163 -47 -135 -57 -155 -82 -169 -21 -10 -40 -13 -66 -7 -20 4 -45 9
-56 10 -21 4 -83 16 -100 19 -5 2 -23 5 -40 8 -16 3 -40 8 -51 11 -12 2 -38 7
-59 10 -20 4 -40 8 -44 11 -4 2 -29 6 -55 10 -27 3 -51 7 -55 9 -3 2 -22 7
-41 10 -53 9 -80 14 -265 51 -93 19 -183 36 -199 39 -16 3 -52 10 -80 15 -28
6 -63 13 -78 16 -16 3 -39 7 -53 10 -82 16 -94 14 -129 -21 -36 -35 -6 -99 99
-210 5 -6 33 -37 61 -70 29 -32 121 -138 205 -234 84 -96 162 -186 173 -199
17 -20 58 -67 181 -207 6 -7 35 -40 65 -74 30 -34 58 -71 63 -82 9 -25 1 -70
-15 -83 -7 -5 -31 -32 -52 -58 -21 -27 -46 -56 -55 -65 -9 -10 -46 -51 -81
-92 -36 -41 -67 -77 -70 -80 -3 -3 -34 -39 -70 -80 -36 -41 -77 -88 -92 -105
-36 -40 -62 -70 -111 -129 -23 -27 -47 -55 -54 -61 -7 -7 -44 -50 -84 -96 -39
-46 -75 -86 -79 -89 -3 -3 -27 -31 -53 -63 -57 -70 -61 -103 -17 -140 30 -26
48 -27 120 -12 49 11 185 37 205 40 11 1 31 5 45 9 14 3 36 8 50 10 14 2 36 7
50 10 14 3 36 8 50 10 26 5 117 22 160 31 14 3 36 7 50 10 14 2 70 14 125 25
55 11 114 23 130 25 17 3 55 11 85 17 30 6 62 12 70 13 8 1 54 10 101 20 113
23 134 14 162 -65 11 -30 60 -172 109 -315 49 -143 100 -291 114 -330 14 -38
26 -77 29 -85 5 -20 124 -371 132 -390 3 -8 7 -21 9 -29 1 -8 11 -26 22 -40
25 -34 90 -41 116 -13 14 17 69 158 85 222 0 3 12 34 25 70 13 36 53 155 90
265 37 110 72 209 76 220 5 11 19 49 30 85 58 176 134 385 144 396 21 21 55
26 109 15 28 -6 63 -13 77 -16 14 -3 59 -12 100 -20 41 -8 90 -17 107 -19 18
-3 40 -7 50 -10 10 -3 34 -8 53 -11 19 -3 89 -17 155 -30 66 -14 132 -27 148
-30 15 -3 38 -7 52 -10 14 -3 35 -7 48 -9 12 -3 92 -18 177 -35 85 -17 169
-33 185 -36 17 -2 40 -7 53 -9 34 -7 69 12 82 45 15 35 8 68 -22 101 -34 37
-147 167 -238 272 -14 16 -32 36 -40 45 -9 9 -56 63 -105 121 -50 58 -93 107
-96 110 -3 3 -36 41 -74 85 -38 44 -78 89 -88 100 -10 11 -33 37 -50 58 -18
21 -51 59 -75 85 -89 97 -90 128 -6 218 26 27 53 58 159 182 17 20 44 50 60
68 17 18 50 56 75 85 25 29 52 60 60 69 8 9 42 47 75 85 32 39 66 77 75 86 8
9 34 38 57 65 42 49 52 60 146 168 106 121 118 153 74 195 -29 27 -57 33 -99
20 -18 -5 -49 -12 -68 -14 -19 -3 -69 -12 -110 -20 -41 -8 -86 -17 -100 -20
-14 -3 -47 -9 -75 -15 -27 -5 -63 -12 -80 -15 -16 -2 -75 -14 -130 -25 -55
-12 -111 -23 -125 -25 -14 -2 -36 -7 -50 -10 -29 -6 -86 -17 -115 -21 -11 -1
-20 -3 -20 -4 0 -2 -25 -8 -70 -15 -22 -3 -47 -8 -55 -10 -8 -2 -28 -7 -45
-10 -16 -2 -41 -7 -55 -10 -191 -39 -183 -45 -261 190 -24 72 -44 132 -44 135
-1 3 -5 12 -8 20 -3 8 -29 83 -57 165 -28 83 -60 175 -71 205 -11 30 -22 62
-24 70 -2 8 -13 42 -25 75 -12 33 -23 69 -25 80 -3 11 -9 29 -14 40 -5 11 -21
56 -36 100 -15 44 -29 87 -32 95 -4 8 -7 21 -9 29 -13 66 -104 95 -143 45z"/>
<path d="M90 2201 c0 -3 -19 -6 -42 -6 l-43 0 1 -85 c1 -81 10 -188 19 -220 2
-8 7 -35 10 -59 24 -167 126 -446 230 -626 41 -72 107 -169 117 -173 4 -2 8
-10 8 -18 0 -8 7 -17 15 -20 8 -4 15 -11 15 -16 0 -11 3 -14 102 -122 126
-139 221 -220 373 -323 161 -108 417 -225 565 -258 8 -2 26 -8 40 -13 14 -5
28 -10 33 -10 6 0 83 -14 97 -17 4 -1 61 -10 140 -22 14 -2 73 -6 132 -9 l106
-5 -8 35 c-4 19 -6 37 -3 39 7 7 5 454 -2 476 -5 18 -15 21 -63 22 -31 1 -66
3 -77 4 -94 10 -201 30 -240 45 -11 4 -51 18 -90 30 -78 26 -305 138 -305 151
0 5 -6 9 -13 9 -30 0 -253 201 -323 292 -92 119 -148 213 -201 338 -75 176
-105 311 -114 508 -1 24 -6 45 -10 48 -5 3 -41 4 -81 4 -86 -1 -116 -1 -142 4
-11 1 -36 0 -57 -4 -21 -4 -43 -4 -49 0 -7 4 -24 4 -39 1 -14 -4 -43 -4 -63
-1 -21 4 -38 5 -38 1z"/>
</g>
</svg>
